HIERARCHY
ROOT ui
{
	 OFFSET 0 0 0
	 CHANNELS 3 XPosition YPosition Z Position
	 EndSite
	 {
	 OFFSET 0 -1 0
	 }
}
ROOT li
{
	 OFFSET 0 0 0
	 CHANNELS 3 XPosition YPosition Z Position
	 EndSite
	 {
	 OFFSET 0 -1 0
	 }
}
ROOT ul
{
	 OFFSET 0 0 0
	 CHANNELS 3 XPosition YPosition Z Position
	 EndSite
	 {
	 OFFSET 0 -1 0
	 }
}
ROOT ll
{
	 OFFSET 0 0 0
	 CHANNELS 3 XPosition YPosition Z Position
	 EndSite
	 {
	 OFFSET 0 -1 0
	 }
}
ROOT tt
{
	 OFFSET 0 0 0
	 CHANNELS 3 XPosition YPosition Z Position
	 EndSite
	 {
	 OFFSET 0 -1 0
	 }
}
ROOT tb
{
	 OFFSET 0 0 0
	 CHANNELS 3 XPosition YPosition Z Position
	 EndSite
	 {
	 OFFSET 0 -1 0
	 }
}
ROOT td
{
	 OFFSET 0 0 0
	 CHANNELS 3 XPosition YPosition Z Position
	 EndSite
	 {
	 OFFSET 0 -1 0
	 }
}
ROOT v
{
	 OFFSET 0 0 0
	 CHANNELS 3 XPosition YPosition Z Position
	 EndSite
	 {
	 OFFSET 0 -1 0
	 }
}
ROOT bn
{
	 OFFSET 0 0 0
	 CHANNELS 3 XPosition YPosition Z Position
	 EndSite
	 {
	 OFFSET 0 -1 0
	 }
}
MOTION
Frames: 24
Frame Time: 0.002
-0.021765188217163087	5.354560017585754E-4	0		0.6011595458984375	-2.72666259765625	0		-0.984318359375	0.16278652954101563	0		-0.23455728149414062	-3.46053076171875	0		2.2129541015625	-1.6780352783203125	0		3.668527099609375	-0.89496923828125	0		4.8459599609375	-0.43454241943359373	0		5.93636962890625	0.4043087158203125	0		-0.13666656494140625	5.88509033203125	0		
0.05539714813232422	-0.0017585539817810058	0		0.6263112182617188	-2.732123779296875	0		-0.9932428588867187	0.15583634948730468	0		-0.23735807800292968	-3.463563720703125	0		2.213170166015625	-1.6780745849609375	0		3.640764892578125	-0.8925415649414062	0		4.83340966796875	-0.418333740234375	0		5.919552734375	0.4046010437011719	0		-0.13756230163574218	5.88602685546875	0		
-0.021314476013183595	3.851169943809509E-4	0		0.5966078491210938	-2.73271240234375	0		-1.0078858642578126	0.16198291015625	0		-0.2370372314453125	-3.463640625	0		2.196668701171875	-1.66484375	0		3.635185791015625	-0.8834600219726563	0		4.8453935546875	-0.43651312255859376	0		5.91181005859375	0.4047533874511719	0		-0.2697444458007813	5.8650390625	0		
0.0560020751953125	-0.0018980859518051149	0		0.5990247192382813	-2.730802978515625	0		-0.99264306640625	0.15566252136230468	0		-0.33242294311523435	-3.4492001953125	0		2.215876953125	-1.6751754150390625	0		3.666427490234375	-0.8909584350585937	0		4.8419482421875	-0.42344256591796875	0		5.93011181640625	0.4024958190917969	0		-0.13518173217773438	5.883849609375	0		
-0.013442933082580566	0.0071418418884277345	0		0.6124051513671875	-2.7360615234375	0		-0.9871785278320313	0.15850555419921875	0		-0.21620217895507812	-3.46609423828125	0		2.22347900390625	-1.6653170166015625	0		3.669364990234375	-0.8590023803710938	0		4.842658203125	-0.40543576049804686	0		5.9295419921875	0.4035367126464844	0		-0.13583323669433595	5.88480029296875	0		
0.06097774124145508	0.0019199130535125732	0		0.6020462646484375	-2.72893798828125	0		-0.99852880859375	0.1686229705810547	0		-0.2285038299560547	-3.45595068359375	0		2.202390380859375	-1.6400010986328124	0		3.654635009765625	-0.8737723388671875	0		4.84801416015625	-0.4145056762695313	0		5.9220302734375	0.4036849060058594	0		-0.1354190216064453	5.88474169921875	0		
-0.01950480842590332	1.441829949617386E-4	0		0.6245185546875	-2.736327880859375	0		-0.9701053466796875	0.16012098693847657	0		-0.22791058349609375	-3.456004638671875	0		2.20296337890625	-1.6400277099609375	0		3.661356201171875	-0.86387841796875	0		4.859556640625	-0.41567575073242186	0		5.917455078125	0.3957794494628906	0		-0.15006983947753907	5.87592578125	0		
-0.018903682708740235	9.786199778318406E-5	0		0.5971607666015625	-2.7349287109375	0		-1.0054853515625	0.16163307189941406	0		-0.22728176879882814	-3.456052490234375	0		2.20357763671875	-1.6400562744140625	0		3.665026611328125	-0.8599429321289063	0		4.8381796875	-0.41433712768554687	0		5.91005419921875	0.395906494140625	0		-0.28287677001953127	5.85397314453125	0		
-0.018271631240844726	5.573099851608276E-5	0		0.6195496215820312	-2.751312255859375	0		-0.9729207763671875	0.15708432006835937	0		-0.2225575714111328	-3.451158935546875	0		2.211372802734375	-1.63020068359375	0		3.66008740234375	-0.832879150390625	0		4.85799951171875	-0.40265975952148436	0		5.91868359375	0.39576263427734376	0		-0.26709738159179686	5.86469287109375	0		
0.059352813720703126	-0.0021937060356140136	0		0.5874547729492188	-2.73483447265625	0		-1.0042042236328126	0.16154808044433594	0		-0.21579884338378907	-3.444293212890625	0		2.215069091796875	-1.627287353515625	0		3.660595458984375	-0.841917236328125	0		4.85076025390625	-0.3955741577148438	0		5.92831640625	0.39458184814453123	0		-0.1331177978515625	5.88456005859375	0		
-0.01696817207336426	-1.9866000860929488E-5	0		0.6291087036132812	-2.734518310546875	0		-0.9775531005859375	0.1611063232421875	0		-0.23782514953613282	-3.422969970703125	0		2.214999755859375	-1.609319091796875	0		3.686416015625	-0.8313624877929687	0		4.8624111328125	-0.39580242919921876	0		5.91998876953125	0.3956638488769531	0		-0.14661276245117189	5.8737451171875	0		
-0.016326663970947265	-5.491000041365623E-5	0		0.6017500610351563	-2.733117431640625	0		-0.976910400390625	0.16107807922363282	0		-0.23312973022460937	-3.41806689453125	0		2.2156298828125	-1.609369873046875	0		3.6581181640625	-0.826968017578125	0		4.8630498046875	-0.39587203979492186	0		5.9206328125	0.39558676147460936	0		-0.13274244689941406	5.88550537109375	0		
-0.015714348793029784	-8.888900279998779E-5	0		0.654234130859375	-2.7399755859375	0		-0.95247265625	0.14967724609375	0		-0.24337709045410155	-3.406927001953125	0		2.21927294921875	-1.606473876953125	0		3.661800537109375	-0.8220866088867187	0		4.85676904296875	-0.3888455505371094	0		5.91810791015625	0.38654168701171876	0		-0.2644169616699219	5.86455322265625	0		
-0.015145264625549316	-1.2229199707508088E-4	0		0.586777099609375	-2.738946044921875	0		-1.020830078125	0.15474229431152345	0		-0.22286915588378906	-3.4082724609375	0		2.22010546875	-1.58853759765625	0		3.6792626953125	-0.8284334106445312	0		4.8521923828125	-0.3978604431152344	0		5.92280712890625	0.3943695068359375	0		-0.1284756317138672	5.8823935546875	0		
0.0023365750312805177	-0.002423401117324829	0		0.6203271484375	-2.73450927734375	0		-0.97520751953125	0.16101325988769533	0		-0.22507215881347656	-3.387258056640625	0		2.20586767578125	-1.5713692626953124	0		3.668335205078125	-0.792336181640625	0		4.868826171875	-0.3902184753417969	0		5.92332861328125	0.39424905395507814	0		-0.12984194946289063	5.88439306640625	0		
-0.0070659580230712895	0.006699586868286133	0		0.6108800659179687	-2.725396240234375	0		-0.95178515625	0.15863259887695313	0		-0.2304040985107422	-3.370195556640625	0		2.234340087890625	-1.56888134765625	0		3.641621826171875	-0.8020022583007812	0		4.85243408203125	-0.3800644836425781	0		5.91966357421875	0.38618289184570315	0		-0.12929182434082032	5.88436181640625	0		
-0.013788830757141114	-2.232770025730133E-4	0		0.6600542602539062	-2.73621484375	0		-0.9564581909179688	0.1546945343017578	0		-0.24866390991210938	-3.3439287109375	0		2.19700390625	-1.5493572998046874	0		3.677116455078125	-0.7946555786132813	0		4.85281396484375	-0.3801851806640625	0		5.92005712890625	0.3860432434082031	0		-0.12880052185058594	5.88432958984375	0		
-0.013473745346069335	-2.5927099585533144E-4	0		0.6084176025390625	-2.72944189453125	0		-0.892274658203125	0.14566513061523437	0		-0.25415989685058593	-3.3278671875	0		2.197288818359375	-1.549436279296875	0		3.675447998046875	-0.79273193359375	0		4.85312158203125	-0.3803157958984375	0		5.9203798828125	0.38589187622070314	0		-0.12837103271484376	5.88429541015625	0		
-0.01323184871673584	-2.983439862728119E-4	0		0.6116634521484375	-2.725542236328125	0		-0.9599577026367188	0.15072207641601562	0		-0.255656982421875	-3.3068720703125	0		2.20465478515625	-1.5396353759765624	0		3.65919775390625	-0.7595855712890625	0		4.8505615234375	-0.3674142150878906	0		5.91675732421875	0.39378680419921874	0		-0.24716119384765625	5.87514599609375	0		
-0.013061375617980956	-3.4186199307441713E-4	0		0.616878173828125	-2.71868115234375	0		-0.8986484375	0.1587323455810547	0		-0.2552018127441406	-3.28391259765625	0		2.1940908203125	-1.520560546875	0		3.6701103515625	-0.7748909912109375	0		4.857611328125	-0.37468609619140625	0		5.9208095703125	0.38553677368164063	0		-0.2610208129882812	5.86433203125	0		
0.06401593017578125	-0.002615019083023071	0		0.616907958984375	-2.71874755859375	0		-0.9076513061523438	0.15185092163085936	0		-0.2666611633300781	-3.250768798828125	0		2.18845556640625	-1.5015762939453126	0		3.685476806640625	-0.7572800903320313	0		4.840865234375	-0.36459744262695315	0		5.9209228515625	0.38532781982421876	0		-0.12742708587646484	5.88417236328125	0		
-0.01292070484161377	-4.4707399606704713E-4	0		0.6329603881835938	-2.713077392578125	0		-0.91167236328125	0.14788508605957032	0		-0.27043048095703126	-3.232755859375	0		2.21460595703125	-1.4921114501953125	0		3.656528076171875	-0.754981689453125	0		4.86287353515625	-0.3661444091796875	0		5.92097216796875	0.38509979248046877	0		-0.12721873474121093	5.88411962890625	0		
-0.012949799537658692	-5.105509757995605E-4	0		0.60689990234375	-2.709745849609375	0		-0.91576025390625	0.14391328430175782	0		-0.2830616455078125	-3.201608154296875	0		2.1859658203125	-1.4647833251953124	0		3.642781005859375	-0.7359358520507813	0		4.85080322265625	-0.36816452026367186	0		5.90395703125	0.38512701416015627	0		-0.12706877899169922	5.8840595703125	0		
-0.013048941612243653	-5.820000171661377E-4	0		0.6107791748046875	-2.7059013671875	0		-0.899952880859375	0.1376151428222656	0		-0.2906846923828125	-3.1655478515625	0		2.180997314453125	-1.4538453369140625	0		3.668703369140625	-0.7335381469726563	0		4.8506923828125	-0.3683886413574219	0		5.91797998046875	0.39164511108398437	0		-0.2422242889404297	5.86983203125	0		
